<svg width="400" height="300" viewBox="0 0 400 300" fill="none" xmlns="http://www.w3.org/2000/svg" role="img" aria-label="The six-phase Claude Kit workflow: Think, Review, Build, Ship, Maintain, Setup">
  <defs>
    <radialGradient id="glow-d" cx="50%" cy="45%" r="55%">
      <stop offset="0%" stop-color="#fbbf24" stop-opacity="0.16"/>
      <stop offset="100%" stop-color="#fbbf24" stop-opacity="0"/>
    </radialGradient>
  </defs>

  <!-- Ambient wash -->
  <ellipse cx="200" cy="140" rx="200" ry="130" fill="url(#glow-d)"/>

  <!-- Phase labels (row 1) -->
  <g font-family="'IBM Plex Mono', ui-monospace, monospace" font-size="11" font-weight="500" letter-spacing="0.08em" fill="#a8a29e" text-anchor="middle">
    <text x="70" y="80">THINK</text>
    <text x="200" y="80">REVIEW</text>
    <text x="330" y="80">BUILD</text>
  </g>

  <!-- Phase numbers (row 1) -->
  <g font-family="'IBM Plex Mono', ui-monospace, monospace" font-size="9" font-weight="500" fill="#57534e" text-anchor="middle">
    <text x="70" y="64">01</text>
    <text x="200" y="64">02</text>
    <text x="330" y="64">03</text>
  </g>

  <!-- Row 1 connector line -->
  <line x1="82" y1="110" x2="188" y2="110" stroke="#fbbf24" stroke-width="1.5" stroke-dasharray="2 3"/>
  <line x1="212" y1="110" x2="318" y2="110" stroke="#fbbf24" stroke-width="1.5" stroke-dasharray="2 3"/>

  <!-- Row 1 nodes -->
  <circle cx="70" cy="110" r="7" fill="#0a0f0a" stroke="#fbbf24" stroke-width="2"/>
  <circle cx="200" cy="110" r="7" fill="#0a0f0a" stroke="#fbbf24" stroke-width="2"/>
  <circle cx="330" cy="110" r="7" fill="#fbbf24"/>

  <!-- Elbow: Build (3) -> Ship (4) -->
  <path d="M 337 110 Q 360 110 360 150 Q 360 190 337 190" fill="none" stroke="#fbbf24" stroke-width="1.5" stroke-dasharray="2 3"/>

  <!-- Row 2 connector line -->
  <line x1="318" y1="190" x2="212" y2="190" stroke="#fbbf24" stroke-width="1.5" stroke-dasharray="2 3"/>
  <line x1="188" y1="190" x2="82" y2="190" stroke="#fbbf24" stroke-width="1.5" stroke-dasharray="2 3"/>

  <!-- Row 2 nodes -->
  <circle cx="330" cy="190" r="7" fill="#0a0f0a" stroke="#fbbf24" stroke-width="2"/>
  <circle cx="200" cy="190" r="7" fill="#0a0f0a" stroke="#fbbf24" stroke-width="2"/>
  <circle cx="70" cy="190" r="7" fill="#0a0f0a" stroke="#fbbf24" stroke-width="2"/>

  <!-- Phase labels (row 2) -->
  <g font-family="'IBM Plex Mono', ui-monospace, monospace" font-size="11" font-weight="500" letter-spacing="0.08em" fill="#a8a29e" text-anchor="middle">
    <text x="330" y="222">SHIP</text>
    <text x="200" y="222">MAINTAIN</text>
    <text x="70" y="222">SETUP</text>
  </g>

  <!-- Phase numbers (row 2) -->
  <g font-family="'IBM Plex Mono', ui-monospace, monospace" font-size="9" font-weight="500" fill="#57534e" text-anchor="middle">
    <text x="330" y="238">04</text>
    <text x="200" y="238">05</text>
    <text x="70" y="238">06</text>
  </g>

  <!-- Footer inscription -->
  <text x="200" y="270" font-family="'IBM Plex Mono', ui-monospace, monospace" font-size="10" font-weight="400" letter-spacing="0.12em" fill="#57534e" text-anchor="middle">35 SKILLS · 24 AGENTS · 7 MODES</text>
</svg>
